<svg width="520" height="240" viewBox="0 0 520 240" fill="none" xmlns="http://www.w3.org/2000/svg">
  <rect width="520" height="240" rx="28" fill="#0C2034"/>
  <rect x="26" y="26" width="468" height="188" rx="22" stroke="#204E77" stroke-width="2"/>
  <path d="M82 152C82 124 104 92 138 92C148 92 156 94 164 99L144 120C141 118 138 117 134 117C118 117 108 131 108 144C108 157 118 170 134 170C138 170 141 169 144 167L164 188C156 193 148 196 138 196C104 196 82 180 82 152Z" fill="#2FA4E7"/>
  <text x="210" y="116" fill="#E9F5FF" font-family="Arial, sans-serif" font-size="34" font-weight="700">InfraWorks</text>
  <text x="210" y="150" fill="#8EB7D8" font-family="Arial, sans-serif" font-size="18">Infrastructure supply network</text>
</svg>
